<svg width="130" height="97" viewBox="0 0 130 97" fill="none" xmlns="http://www.w3.org/2000/svg">
<path d="M122.407 9.16571H7.87627C3.70924 9.16571 0.304688 12.5815 0.304688 16.7624V88.5483C0.304688 92.7292 3.70924 96.145 7.87627 96.145H122.407C126.575 96.145 129.979 92.7292 129.979 88.5483V16.7624C129.979 12.5815 126.575 9.16571 122.407 9.16571ZM21.3881 77.518C21.3881 78.4076 20.6611 79.137 19.7745 79.137H16.3344C15.4478 79.137 14.7208 78.4076 14.7208 77.518V27.8105C14.7208 26.9209 15.4478 26.1915 16.3344 26.1915H19.7745C20.6611 26.1915 21.3881 26.9209 21.3881 27.8105V77.518ZM90.9509 79.137C76.3751 79.137 64.5656 67.2883 64.5656 52.6643C64.5656 38.0402 76.3751 26.1915 90.9509 26.1915C105.527 26.1915 117.336 38.0402 117.336 52.6643C117.336 67.2883 105.527 79.137 90.9509 79.137Z" fill="#8DC743"/>
<path d="M32.4353 0.537598H16.4765C15.4971 0.537598 14.7032 1.33412 14.7032 2.31668V16.6383C14.7032 17.6208 15.4971 18.4174 16.4765 18.4174H32.4353C33.4146 18.4174 34.2085 17.6208 34.2085 16.6383V2.31668C34.2085 1.33412 33.4146 0.537598 32.4353 0.537598Z" fill="#8DC743"/>
<path d="M90.9494 71.2031C101.154 71.2031 109.426 62.9034 109.426 52.6651C109.426 42.4268 101.154 34.1271 90.9494 34.1271C80.745 34.1271 72.4727 42.4268 72.4727 52.6651C72.4727 62.9034 80.745 71.2031 90.9494 71.2031Z" fill="#8DC743"/>
</svg>
