<svg width="139" height="139" viewBox="0 0 139 139" fill="none" xmlns="http://www.w3.org/2000/svg">
<path fill-rule="evenodd" clip-rule="evenodd" d="M104.262 34.7332V103.962H35.2617V34.7332H104.262ZM64.3037 52.0404H57.5838L44.8258 86.6548H50.8883L53.2969 79.8879H68.569L70.9261 86.6548H77.3536L64.3037 52.0404ZM88.1152 52.0404H82.0771V86.6548H88.1152V52.0404ZM60.8925 57.8478L66.9071 75.1165H54.9739L60.8925 57.8478ZM110.012 86.6548H121.512V98.193H110.012L110.012 86.6548ZM41.0122 109.731H52.5117V121.269H41.0116L41.0122 109.731ZM64.0121 109.731H75.5119V121.269H64.0121V109.731ZM41.0116 17.426H52.5117V28.9642H41.0116V17.426ZM87.0117 109.731H98.5118V121.269H87.0117V109.731ZM64.0118 17.426H75.5116V28.9642H64.0118V17.426ZM87.0117 17.426H98.5118V28.9642H87.0117V17.426ZM110.012 63.5786H121.512V75.1165H110.012V63.5786ZM18.0117 86.6548H29.5118V98.193H18.0117V86.6548ZM110.012 40.5022H121.512V52.0404H110.012V40.5022ZM18.0117 63.5786H29.5118V75.1165H18.0117V63.5786ZM18.0117 40.5022H29.5118V52.0404H18.0117V40.5022Z" fill="#8DC743"/>
</svg>
