<svg width="51" height="51" viewBox="0 0 51 51" fill="none" xmlns="http://www.w3.org/2000/svg">
<path d="M25.2773 1.32812C38.5322 1.32812 49.2773 12.0733 49.2773 25.3281C49.2773 38.583 38.5322 49.3281 25.2773 49.3281C12.0225 49.3281 1.27734 38.583 1.27734 25.3281C1.27734 12.0733 12.0225 1.32812 25.2773 1.32812ZM25.2773 11.8281C17.8501 11.8281 11.7773 17.9008 11.7773 25.3281C11.7773 32.0728 16.6691 37.6452 23.0898 38.6592L24.2461 38.8418V27.9219H21.1211V26.3281H24.2461V22.5156C24.2461 21.1547 24.6501 20.221 25.2422 19.6289C25.8357 19.0354 26.7313 18.6719 27.9336 18.6719C28.5695 18.6719 29.2198 18.7432 29.7207 18.8174C29.7292 18.8186 29.7377 18.82 29.7461 18.8213V20.1094H29.1836C28.1957 20.1094 27.3841 20.4135 26.835 21.0312C26.3061 21.6263 26.1523 22.3658 26.1523 22.9844V26.3281H29.4004L29.124 27.9219H25.9961V38.9893L27.1445 38.8174C33.8856 37.8062 38.7773 32.0715 38.7773 25.3281C38.7773 17.9008 32.7046 11.8281 25.2773 11.8281Z" stroke="black" stroke-width="2"/>
</svg>
