<svg width="51" height="51" viewBox="0 0 51 51" fill="none" xmlns="http://www.w3.org/2000/svg">
<circle cx="25.2756" cy="25.4748" r="24.049" stroke="black" stroke-width="2"/>
<path d="M25.2739 12.8965C21.8604 12.8965 21.4312 12.9122 20.09 12.972C18.7488 13.0348 17.8352 13.2455 17.0349 13.5569C16.1951 13.8718 15.4345 14.3672 14.8069 15.0081C14.1661 15.6357 13.6707 16.3962 13.3557 17.2361C13.0444 18.0348 12.8321 18.9499 12.7708 20.2864C12.711 21.6308 12.6953 22.0584 12.6953 25.4767C12.6953 28.8918 12.711 29.3194 12.7708 30.6606C12.8337 32.0003 13.0444 32.9138 13.3557 33.7141C13.678 34.5411 14.1073 35.2424 14.8069 35.9421C15.5051 36.6418 16.2063 37.0726 17.0334 37.3933C17.8352 37.7047 18.7472 37.9169 20.0868 37.9782C21.4296 38.038 21.8573 38.0537 25.2739 38.0537C28.6906 38.0537 29.1167 38.038 30.4595 37.9782C31.7975 37.9153 32.7142 37.7047 33.5145 37.3933C34.3538 37.0782 35.1138 36.5828 35.7409 35.9421C36.4406 35.2424 36.8698 34.5411 37.1922 33.7141C37.5019 32.9138 37.7142 32.0003 37.7771 30.6606C37.8368 29.3194 37.8525 28.8918 37.8525 25.4751C37.8525 22.0584 37.8368 21.6308 37.7771 20.288C37.7142 18.9499 37.5019 18.0348 37.1922 17.2361C36.8772 16.3962 36.3818 15.6357 35.7409 15.0081C35.1133 14.3672 34.3528 13.8718 33.5129 13.5569C32.711 13.2455 31.7959 13.0333 30.4579 12.972C29.1151 12.9122 28.689 12.8965 25.2708 12.8965H25.2739ZM24.1466 15.1638H25.2755C28.634 15.1638 29.0318 15.1748 30.3573 15.2361C31.5837 15.2911 32.2503 15.4971 32.6937 15.6685C33.2802 15.8965 33.7 16.1701 34.1403 16.6103C34.5805 17.0506 34.8525 17.4688 35.0805 18.0569C35.2535 18.4987 35.4579 19.1654 35.5129 20.3918C35.5742 21.7172 35.5868 22.115 35.5868 25.472C35.5868 28.8289 35.5742 29.2282 35.5129 30.5537C35.4579 31.7801 35.2519 32.4452 35.0805 32.8886C34.8774 33.4341 34.5557 33.9276 34.1387 34.3336C33.6985 34.7738 33.2802 35.0459 32.6922 35.2738C32.2519 35.4468 31.5852 35.6512 30.3573 35.7078C29.0318 35.7675 28.634 35.7817 25.2755 35.7817C21.917 35.7817 21.5176 35.7675 20.1922 35.7078C18.9658 35.6512 18.3007 35.4468 17.8573 35.2738C17.3114 35.0714 16.8173 34.7503 16.4107 34.3336C15.9929 33.9273 15.6707 33.4332 15.4673 32.887C15.2959 32.4452 15.09 31.7786 15.0349 30.5521C14.9752 29.2267 14.9626 28.8289 14.9626 25.4688C14.9626 22.1087 14.9752 21.7141 15.0349 20.3886C15.0915 19.1622 15.2959 18.4955 15.4689 18.0521C15.6969 17.4657 15.9705 17.0459 16.4107 16.6056C16.851 16.1654 17.2692 15.8933 17.8573 15.6654C18.3007 15.4924 18.9658 15.288 20.1922 15.2314C21.3525 15.1779 21.8022 15.1622 24.1466 15.1606V15.1638ZM31.9893 17.2518C31.7911 17.2518 31.5948 17.2909 31.4117 17.3667C31.2286 17.4426 31.0622 17.5538 30.922 17.6939C30.7818 17.8341 30.6707 18.0005 30.5948 18.1836C30.5189 18.3668 30.4799 18.563 30.4799 18.7613C30.4799 18.9595 30.5189 19.1558 30.5948 19.3389C30.6707 19.522 30.7818 19.6884 30.922 19.8286C31.0622 19.9688 31.2286 20.0799 31.4117 20.1558C31.5948 20.2317 31.7911 20.2707 31.9893 20.2707C32.3897 20.2707 32.7736 20.1117 33.0567 19.8286C33.3397 19.5455 33.4988 19.1616 33.4988 18.7613C33.4988 18.3609 33.3397 17.977 33.0567 17.6939C32.7736 17.4109 32.3897 17.2518 31.9893 17.2518ZM25.2755 19.016C24.4187 19.0026 23.5678 19.1598 22.7723 19.4785C21.9769 19.7971 21.2527 20.2708 20.6421 20.872C20.0315 21.4732 19.5465 22.1898 19.2155 22.9802C18.8845 23.7706 18.714 24.619 18.714 25.4759C18.714 26.3328 18.8845 27.1811 19.2155 27.9715C19.5465 28.7619 20.0315 29.4786 20.6421 30.0798C21.2527 30.681 21.9769 31.1547 22.7723 31.4733C23.5678 31.7919 24.4187 31.9492 25.2755 31.9358C26.9713 31.9093 28.5887 31.2171 29.7786 30.0085C30.9685 28.7999 31.6354 27.1719 31.6354 25.4759C31.6354 23.7799 30.9685 22.1518 29.7786 20.9433C28.5887 19.7347 26.9713 19.0424 25.2755 19.016ZM25.2755 21.2817C25.8262 21.2817 26.3715 21.3902 26.8802 21.6009C27.389 21.8116 27.8513 22.1205 28.2407 22.5099C28.6301 22.8993 28.939 23.3616 29.1497 23.8704C29.3604 24.3791 29.4689 24.9244 29.4689 25.4751C29.4689 26.0258 29.3604 26.5711 29.1497 27.0798C28.939 27.5886 28.6301 28.0509 28.2407 28.4403C27.8513 28.8297 27.389 29.1386 26.8802 29.3493C26.3715 29.56 25.8262 29.6685 25.2755 29.6685C24.1633 29.6685 23.0967 29.2267 22.3103 28.4403C21.5239 27.6539 21.0821 26.5873 21.0821 25.4751C21.0821 24.3629 21.5239 23.2963 22.3103 22.5099C23.0967 21.7235 24.1633 21.2817 25.2755 21.2817Z" fill="black"/>
</svg>
