<svg width="40" height="41" viewBox="0 0 40 41" fill="none" xmlns="http://www.w3.org/2000/svg">
<circle cx="19.9868" cy="20.4331" r="18.6431" stroke="black" stroke-width="2"/>
<path d="M29.9102 30.3574L25.1214 25.5687M25.1214 25.5687C25.9405 24.7495 26.5903 23.7771 27.0336 22.7068C27.4769 21.6366 27.7051 20.4895 27.7051 19.3311C27.7051 18.1726 27.4769 17.0256 27.0336 15.9553C26.5903 14.8851 25.9405 13.9126 25.1214 13.0935C24.3023 12.2743 23.3298 11.6246 22.2596 11.1812C21.1893 10.7379 20.0422 10.5098 18.8838 10.5098C17.7254 10.5098 16.5783 10.7379 15.508 11.1812C14.4378 11.6246 13.4653 12.2743 12.6462 13.0935C10.9919 14.7478 10.0625 16.9915 10.0625 19.3311C10.0625 21.6706 10.9919 23.9144 12.6462 25.5687C14.3005 27.223 16.5443 28.1524 18.8838 28.1524C21.2234 28.1524 23.4671 27.223 25.1214 25.5687Z" stroke="black" stroke-width="2" stroke-linecap="round" stroke-linejoin="round"/>
</svg>
