<svg width="51" height="51" viewBox="0 0 51 51" fill="none" xmlns="http://www.w3.org/2000/svg">
<path d="M25.2773 1.42578C38.5322 1.42578 49.2773 12.1709 49.2773 25.4258C49.2773 38.6806 38.5322 49.4258 25.2773 49.4258C12.0225 49.4258 1.27734 38.6806 1.27734 25.4258C1.27734 12.1709 12.0225 1.42578 25.2773 1.42578ZM24.7773 15.6768C24.5583 15.6777 24.2433 15.6799 23.8594 15.6836C23.0916 15.691 22.0453 15.7049 20.9346 15.7344C19.8251 15.7638 18.6435 15.8089 17.6074 15.876C16.5948 15.9415 15.6499 16.0322 15.0527 16.1699L15.0273 16.1758L15.0029 16.1826C13.577 16.59 12.5353 17.6317 12.1279 19.0576L12.1113 19.1182L12.1016 19.1797C11.935 20.2624 11.8554 21.842 11.8164 23.1104C11.7967 23.7526 11.7872 24.33 11.7822 24.7471C11.7798 24.9558 11.7789 25.1252 11.7783 25.2422C11.778 25.3005 11.7774 25.3459 11.7773 25.377V25.4756C11.7775 25.5072 11.7779 25.5533 11.7783 25.6123C11.7793 25.7303 11.7814 25.9005 11.7852 26.1104C11.7926 26.5297 11.8071 27.1106 11.8369 27.7568C11.8955 29.0252 12.0146 30.6307 12.2715 31.7441L12.2773 31.7695L12.2842 31.7939C12.6916 33.2199 13.7332 34.2615 15.1592 34.6689L15.1748 34.6729L15.1914 34.6768C15.7606 34.819 16.6973 34.9104 17.6973 34.9756C18.7265 35.0427 19.9131 35.0877 21.0322 35.1172C22.1527 35.1467 23.2132 35.1606 23.9932 35.168C24.3831 35.1716 24.7037 35.1739 24.9268 35.1748C25.0383 35.1753 25.126 35.1757 25.1855 35.1758H25.3672C25.4256 35.1757 25.5116 35.1753 25.6211 35.1748C25.8402 35.1739 26.1551 35.1716 26.5391 35.168C27.3069 35.1606 28.3531 35.1467 29.4639 35.1172C30.5733 35.0877 31.755 35.0427 32.791 34.9756C33.8036 34.91 34.7486 34.8194 35.3457 34.6816L35.3711 34.6758L35.3955 34.6689C36.8214 34.2615 37.8631 33.2199 38.2705 31.7939L38.2773 31.7695L38.2832 31.7441C38.5401 30.6307 38.6592 29.0252 38.7178 27.7568C38.7476 27.1106 38.7621 26.5297 38.7695 26.1104C38.7733 25.9005 38.7754 25.7303 38.7764 25.6123C38.7768 25.5533 38.7772 25.5072 38.7773 25.4756V25.375C38.7772 25.343 38.777 25.2958 38.7764 25.2363C38.7751 25.1174 38.7726 24.9463 38.7676 24.7354C38.7576 24.3137 38.7373 23.7294 38.6973 23.0791C38.6196 21.8167 38.4602 20.1977 38.1133 19.0576H38.1143C37.7068 17.6317 36.6652 16.59 35.2393 16.1826L35.2236 16.1787L35.207 16.1748L34.9775 16.123C34.4032 16.0094 33.5763 15.9331 32.7012 15.876C31.672 15.8089 30.4853 15.7638 29.3662 15.7344C28.2458 15.7049 27.1852 15.691 26.4053 15.6836C26.0153 15.6799 25.6947 15.6777 25.4717 15.6768C25.3601 15.6763 25.2724 15.6759 25.2129 15.6758H25.0312C24.9729 15.6759 24.8869 15.6763 24.7773 15.6768ZM27.3242 25.4258L23.7773 27.4521V23.3984L27.3242 25.4258Z" stroke="black" stroke-width="2"/>
</svg>
